<mxfile host="app.diagrams.net" modified="2023-08-03T01:55:55.828Z" agent="Mozilla/5.0 (Windows NT 10.0; Win64; x64) AppleWebKit/537.36 (KHTML, like Gecko) Chrome/115.0.0.0 Safari/537.36" etag="ez3la5hgafmYyMtInW9T" version="21.6.6" type="device">
  <diagram name="Page-1" id="SzMqvhJwY6H4hycYf1JS">
    <mxGraphModel dx="1354" dy="686" grid="1" gridSize="10" guides="1" tooltips="1" connect="1" arrows="1" fold="1" page="1" pageScale="1" pageWidth="850" pageHeight="1100" math="0" shadow="0">
      <root>
        <mxCell id="0" />
        <mxCell id="1" parent="0" />
        <mxCell id="6i5o-V7SKJmfIerdC-9s-5" value="" style="edgeStyle=orthogonalEdgeStyle;rounded=0;orthogonalLoop=1;jettySize=auto;html=1;fontSize=16;" parent="1" source="6i5o-V7SKJmfIerdC-9s-1" target="6i5o-V7SKJmfIerdC-9s-2" edge="1">
          <mxGeometry relative="1" as="geometry" />
        </mxCell>
        <mxCell id="6i5o-V7SKJmfIerdC-9s-1" value="Start" style="ellipse;whiteSpace=wrap;html=1;fontSize=16;" parent="1" vertex="1">
          <mxGeometry x="87.5" y="60" width="95" height="60" as="geometry" />
        </mxCell>
        <mxCell id="CtCd1h_A16PmkRaLvVNn-5" style="edgeStyle=orthogonalEdgeStyle;rounded=0;orthogonalLoop=1;jettySize=auto;html=1;exitX=0.5;exitY=1;exitDx=0;exitDy=0;entryX=0.5;entryY=0;entryDx=0;entryDy=0;" edge="1" parent="1" source="6i5o-V7SKJmfIerdC-9s-2" target="6i5o-V7SKJmfIerdC-9s-3">
          <mxGeometry relative="1" as="geometry" />
        </mxCell>
        <mxCell id="6i5o-V7SKJmfIerdC-9s-2" value="Logged In" style="rounded=0;whiteSpace=wrap;html=1;fontSize=16;" parent="1" vertex="1">
          <mxGeometry x="80" y="160" width="110" height="40" as="geometry" />
        </mxCell>
        <mxCell id="CtCd1h_A16PmkRaLvVNn-1" style="edgeStyle=orthogonalEdgeStyle;rounded=0;orthogonalLoop=1;jettySize=auto;html=1;exitX=0.5;exitY=1;exitDx=0;exitDy=0;entryX=0.5;entryY=0;entryDx=0;entryDy=0;" edge="1" parent="1" source="6i5o-V7SKJmfIerdC-9s-3" target="6i5o-V7SKJmfIerdC-9s-13">
          <mxGeometry relative="1" as="geometry" />
        </mxCell>
        <mxCell id="6i5o-V7SKJmfIerdC-9s-3" value="Click on an&amp;nbsp; event" style="rounded=0;whiteSpace=wrap;html=1;fontSize=16;" parent="1" vertex="1">
          <mxGeometry x="90" y="250" width="90" height="50" as="geometry" />
        </mxCell>
        <mxCell id="6i5o-V7SKJmfIerdC-9s-11" value="" style="edgeStyle=orthogonalEdgeStyle;rounded=0;orthogonalLoop=1;jettySize=auto;html=1;fontSize=16;" parent="1" source="6i5o-V7SKJmfIerdC-9s-9" target="6i5o-V7SKJmfIerdC-9s-10" edge="1">
          <mxGeometry relative="1" as="geometry" />
        </mxCell>
        <mxCell id="6i5o-V7SKJmfIerdC-9s-9" value="Event Details" style="rounded=1;whiteSpace=wrap;html=1;fontSize=16;" parent="1" vertex="1">
          <mxGeometry x="70" y="710" width="120" height="60" as="geometry" />
        </mxCell>
        <mxCell id="6i5o-V7SKJmfIerdC-9s-26" style="edgeStyle=orthogonalEdgeStyle;rounded=0;orthogonalLoop=1;jettySize=auto;html=1;exitX=1;exitY=0.5;exitDx=0;exitDy=0;entryX=1;entryY=0.25;entryDx=0;entryDy=0;fontSize=16;" parent="1" source="6i5o-V7SKJmfIerdC-9s-10" target="6i5o-V7SKJmfIerdC-9s-9" edge="1">
          <mxGeometry relative="1" as="geometry">
            <Array as="points">
              <mxPoint x="240" y="875" />
              <mxPoint x="240" y="725" />
            </Array>
          </mxGeometry>
        </mxCell>
        <mxCell id="6i5o-V7SKJmfIerdC-9s-28" value="" style="edgeStyle=orthogonalEdgeStyle;rounded=0;orthogonalLoop=1;jettySize=auto;html=1;fontSize=16;" parent="1" source="6i5o-V7SKJmfIerdC-9s-10" target="6i5o-V7SKJmfIerdC-9s-27" edge="1">
          <mxGeometry relative="1" as="geometry" />
        </mxCell>
        <mxCell id="6i5o-V7SKJmfIerdC-9s-10" value="Filled Mandatory" style="rhombus;whiteSpace=wrap;html=1;rounded=1;fontSize=16;" parent="1" vertex="1">
          <mxGeometry x="80" y="820" width="100" height="110" as="geometry" />
        </mxCell>
        <mxCell id="6i5o-V7SKJmfIerdC-9s-14" style="edgeStyle=orthogonalEdgeStyle;rounded=0;orthogonalLoop=1;jettySize=auto;html=1;exitX=0.5;exitY=1;exitDx=0;exitDy=0;fontSize=16;" parent="1" source="6i5o-V7SKJmfIerdC-9s-13" edge="1">
          <mxGeometry relative="1" as="geometry">
            <mxPoint x="50" y="490" as="targetPoint" />
          </mxGeometry>
        </mxCell>
        <mxCell id="CtCd1h_A16PmkRaLvVNn-9" style="edgeStyle=orthogonalEdgeStyle;rounded=0;orthogonalLoop=1;jettySize=auto;html=1;exitX=0.5;exitY=1;exitDx=0;exitDy=0;entryX=0.75;entryY=0;entryDx=0;entryDy=0;" edge="1" parent="1" source="6i5o-V7SKJmfIerdC-9s-13" target="6i5o-V7SKJmfIerdC-9s-17">
          <mxGeometry relative="1" as="geometry" />
        </mxCell>
        <mxCell id="6i5o-V7SKJmfIerdC-9s-13" value="Event Type" style="rounded=0;whiteSpace=wrap;html=1;fontSize=16;" parent="1" vertex="1">
          <mxGeometry x="75" y="360" width="120" height="40" as="geometry" />
        </mxCell>
        <mxCell id="6i5o-V7SKJmfIerdC-9s-24" style="edgeStyle=orthogonalEdgeStyle;rounded=0;orthogonalLoop=1;jettySize=auto;html=1;exitX=0.5;exitY=1;exitDx=0;exitDy=0;fontSize=16;" parent="1" source="6i5o-V7SKJmfIerdC-9s-16" target="6i5o-V7SKJmfIerdC-9s-9" edge="1">
          <mxGeometry relative="1" as="geometry">
            <Array as="points">
              <mxPoint x="55" y="670" />
              <mxPoint x="130" y="670" />
            </Array>
          </mxGeometry>
        </mxCell>
        <mxCell id="6i5o-V7SKJmfIerdC-9s-16" value="Online" style="rounded=0;whiteSpace=wrap;html=1;fontSize=16;" parent="1" vertex="1">
          <mxGeometry y="490" width="110" height="40" as="geometry" />
        </mxCell>
        <mxCell id="CtCd1h_A16PmkRaLvVNn-10" style="edgeStyle=orthogonalEdgeStyle;rounded=0;orthogonalLoop=1;jettySize=auto;html=1;exitX=0.5;exitY=1;exitDx=0;exitDy=0;entryX=0.425;entryY=-0.033;entryDx=0;entryDy=0;entryPerimeter=0;" edge="1" parent="1" source="6i5o-V7SKJmfIerdC-9s-17" target="6i5o-V7SKJmfIerdC-9s-22">
          <mxGeometry relative="1" as="geometry" />
        </mxCell>
        <mxCell id="6i5o-V7SKJmfIerdC-9s-17" value="Onsite" style="rounded=0;whiteSpace=wrap;html=1;fontSize=16;" parent="1" vertex="1">
          <mxGeometry x="135" y="490" width="110" height="50" as="geometry" />
        </mxCell>
        <mxCell id="CtCd1h_A16PmkRaLvVNn-15" style="edgeStyle=orthogonalEdgeStyle;rounded=0;orthogonalLoop=1;jettySize=auto;html=1;exitX=0.5;exitY=1;exitDx=0;exitDy=0;" edge="1" parent="1" source="6i5o-V7SKJmfIerdC-9s-22">
          <mxGeometry relative="1" as="geometry">
            <mxPoint x="130" y="710" as="targetPoint" />
            <Array as="points">
              <mxPoint x="195" y="670" />
              <mxPoint x="131" y="670" />
            </Array>
          </mxGeometry>
        </mxCell>
        <mxCell id="6i5o-V7SKJmfIerdC-9s-22" value="Address" style="rounded=1;whiteSpace=wrap;html=1;fontSize=16;" parent="1" vertex="1">
          <mxGeometry x="135" y="580" width="120" height="60" as="geometry" />
        </mxCell>
        <mxCell id="CtCd1h_A16PmkRaLvVNn-20" style="edgeStyle=orthogonalEdgeStyle;rounded=0;orthogonalLoop=1;jettySize=auto;html=1;exitX=1;exitY=0.5;exitDx=0;exitDy=0;" edge="1" parent="1" source="6i5o-V7SKJmfIerdC-9s-27" target="6i5o-V7SKJmfIerdC-9s-31">
          <mxGeometry relative="1" as="geometry" />
        </mxCell>
        <mxCell id="6i5o-V7SKJmfIerdC-9s-27" value="Proceed" style="whiteSpace=wrap;html=1;rounded=1;fontSize=16;" parent="1" vertex="1">
          <mxGeometry x="70" y="960" width="120" height="60" as="geometry" />
        </mxCell>
        <mxCell id="6i5o-V7SKJmfIerdC-9s-33" style="edgeStyle=orthogonalEdgeStyle;rounded=0;orthogonalLoop=1;jettySize=auto;html=1;exitX=0.5;exitY=0;exitDx=0;exitDy=0;entryX=1;entryY=0.5;entryDx=0;entryDy=0;fontSize=16;" parent="1" source="6i5o-V7SKJmfIerdC-9s-31" target="6i5o-V7SKJmfIerdC-9s-13" edge="1">
          <mxGeometry relative="1" as="geometry" />
        </mxCell>
        <mxCell id="CtCd1h_A16PmkRaLvVNn-19" style="edgeStyle=orthogonalEdgeStyle;rounded=0;orthogonalLoop=1;jettySize=auto;html=1;exitX=1;exitY=0.5;exitDx=0;exitDy=0;entryX=0;entryY=0.5;entryDx=0;entryDy=0;" edge="1" parent="1" source="6i5o-V7SKJmfIerdC-9s-31" target="6i5o-V7SKJmfIerdC-9s-35">
          <mxGeometry relative="1" as="geometry" />
        </mxCell>
        <mxCell id="6i5o-V7SKJmfIerdC-9s-31" value="Edit" style="rhombus;whiteSpace=wrap;html=1;fontSize=16;" parent="1" vertex="1">
          <mxGeometry x="270" y="950" width="80" height="80" as="geometry" />
        </mxCell>
        <mxCell id="6i5o-V7SKJmfIerdC-9s-37" value="" style="edgeStyle=orthogonalEdgeStyle;rounded=0;orthogonalLoop=1;jettySize=auto;html=1;fontSize=16;" parent="1" source="6i5o-V7SKJmfIerdC-9s-35" target="6i5o-V7SKJmfIerdC-9s-36" edge="1">
          <mxGeometry relative="1" as="geometry" />
        </mxCell>
        <mxCell id="6i5o-V7SKJmfIerdC-9s-35" value="Post Description" style="rounded=0;whiteSpace=wrap;html=1;fontSize=16;" parent="1" vertex="1">
          <mxGeometry x="430" y="960" width="120" height="60" as="geometry" />
        </mxCell>
        <mxCell id="6i5o-V7SKJmfIerdC-9s-39" value="" style="edgeStyle=orthogonalEdgeStyle;rounded=0;orthogonalLoop=1;jettySize=auto;html=1;fontSize=16;" parent="1" source="6i5o-V7SKJmfIerdC-9s-36" target="6i5o-V7SKJmfIerdC-9s-38" edge="1">
          <mxGeometry relative="1" as="geometry" />
        </mxCell>
        <mxCell id="6i5o-V7SKJmfIerdC-9s-36" value="Post" style="rounded=0;whiteSpace=wrap;html=1;fontSize=16;" parent="1" vertex="1">
          <mxGeometry x="630" y="960" width="120" height="60" as="geometry" />
        </mxCell>
        <mxCell id="6i5o-V7SKJmfIerdC-9s-38" value="End" style="ellipse;whiteSpace=wrap;html=1;rounded=0;fontSize=16;" parent="1" vertex="1">
          <mxGeometry x="650" y="840" width="80" height="40" as="geometry" />
        </mxCell>
        <mxCell id="CtCd1h_A16PmkRaLvVNn-6" value="1" style="text;html=1;align=center;verticalAlign=middle;resizable=0;points=[];autosize=1;strokeColor=none;fillColor=none;" vertex="1" parent="1">
          <mxGeometry x="145" y="120" width="30" height="30" as="geometry" />
        </mxCell>
        <mxCell id="CtCd1h_A16PmkRaLvVNn-7" value="2" style="text;html=1;align=center;verticalAlign=middle;resizable=0;points=[];autosize=1;strokeColor=none;fillColor=none;" vertex="1" parent="1">
          <mxGeometry x="145" y="210" width="30" height="30" as="geometry" />
        </mxCell>
        <mxCell id="CtCd1h_A16PmkRaLvVNn-8" value="3" style="text;html=1;align=center;verticalAlign=middle;resizable=0;points=[];autosize=1;strokeColor=none;fillColor=none;" vertex="1" parent="1">
          <mxGeometry x="145" y="308" width="30" height="30" as="geometry" />
        </mxCell>
        <mxCell id="CtCd1h_A16PmkRaLvVNn-11" value="4" style="text;html=1;align=center;verticalAlign=middle;resizable=0;points=[];autosize=1;strokeColor=none;fillColor=none;" vertex="1" parent="1">
          <mxGeometry x="55" y="458" width="30" height="30" as="geometry" />
        </mxCell>
        <mxCell id="CtCd1h_A16PmkRaLvVNn-12" value="5" style="text;html=1;align=center;verticalAlign=middle;resizable=0;points=[];autosize=1;strokeColor=none;fillColor=none;" vertex="1" parent="1">
          <mxGeometry x="215" y="458" width="30" height="30" as="geometry" />
        </mxCell>
        <mxCell id="CtCd1h_A16PmkRaLvVNn-13" value="6" style="text;html=1;align=center;verticalAlign=middle;resizable=0;points=[];autosize=1;strokeColor=none;fillColor=none;" vertex="1" parent="1">
          <mxGeometry x="205" y="548" width="30" height="30" as="geometry" />
        </mxCell>
        <mxCell id="CtCd1h_A16PmkRaLvVNn-16" value="7" style="text;html=1;align=center;verticalAlign=middle;resizable=0;points=[];autosize=1;strokeColor=none;fillColor=none;" vertex="1" parent="1">
          <mxGeometry x="135" y="678" width="30" height="30" as="geometry" />
        </mxCell>
        <mxCell id="CtCd1h_A16PmkRaLvVNn-17" value="8" style="text;html=1;align=center;verticalAlign=middle;resizable=0;points=[];autosize=1;strokeColor=none;fillColor=none;" vertex="1" parent="1">
          <mxGeometry x="135" y="778" width="30" height="30" as="geometry" />
        </mxCell>
        <mxCell id="CtCd1h_A16PmkRaLvVNn-18" value="9" style="text;html=1;align=center;verticalAlign=middle;resizable=0;points=[];autosize=1;strokeColor=none;fillColor=none;" vertex="1" parent="1">
          <mxGeometry x="205" y="760" width="30" height="30" as="geometry" />
        </mxCell>
        <mxCell id="CtCd1h_A16PmkRaLvVNn-21" value="10" style="text;html=1;align=center;verticalAlign=middle;resizable=0;points=[];autosize=1;strokeColor=none;fillColor=none;" vertex="1" parent="1">
          <mxGeometry x="130" y="918" width="40" height="30" as="geometry" />
        </mxCell>
        <mxCell id="CtCd1h_A16PmkRaLvVNn-22" value="11" style="text;html=1;align=center;verticalAlign=middle;resizable=0;points=[];autosize=1;strokeColor=none;fillColor=none;" vertex="1" parent="1">
          <mxGeometry x="220" y="958" width="40" height="30" as="geometry" />
        </mxCell>
        <mxCell id="CtCd1h_A16PmkRaLvVNn-23" value="12" style="text;html=1;align=center;verticalAlign=middle;resizable=0;points=[];autosize=1;strokeColor=none;fillColor=none;" vertex="1" parent="1">
          <mxGeometry x="310" y="888" width="40" height="30" as="geometry" />
        </mxCell>
        <mxCell id="CtCd1h_A16PmkRaLvVNn-24" value="13" style="text;html=1;align=center;verticalAlign=middle;resizable=0;points=[];autosize=1;strokeColor=none;fillColor=none;" vertex="1" parent="1">
          <mxGeometry x="360" y="948" width="40" height="30" as="geometry" />
        </mxCell>
        <mxCell id="CtCd1h_A16PmkRaLvVNn-25" value="14" style="text;html=1;align=center;verticalAlign=middle;resizable=0;points=[];autosize=1;strokeColor=none;fillColor=none;" vertex="1" parent="1">
          <mxGeometry x="560" y="958" width="40" height="30" as="geometry" />
        </mxCell>
        <mxCell id="CtCd1h_A16PmkRaLvVNn-26" value="15" style="text;html=1;align=center;verticalAlign=middle;resizable=0;points=[];autosize=1;strokeColor=none;fillColor=none;" vertex="1" parent="1">
          <mxGeometry x="690" y="918" width="40" height="30" as="geometry" />
        </mxCell>
        <mxCell id="CtCd1h_A16PmkRaLvVNn-27" value="NO" style="text;html=1;align=center;verticalAlign=middle;resizable=0;points=[];autosize=1;strokeColor=none;fillColor=none;" vertex="1" parent="1">
          <mxGeometry x="195" y="790" width="40" height="30" as="geometry" />
        </mxCell>
        <mxCell id="CtCd1h_A16PmkRaLvVNn-28" value="YES" style="text;html=1;align=center;verticalAlign=middle;resizable=0;points=[];autosize=1;strokeColor=none;fillColor=none;" vertex="1" parent="1">
          <mxGeometry x="75" y="928" width="50" height="30" as="geometry" />
        </mxCell>
        <mxCell id="CtCd1h_A16PmkRaLvVNn-29" value="YES" style="text;html=1;align=center;verticalAlign=middle;resizable=0;points=[];autosize=1;strokeColor=none;fillColor=none;" vertex="1" parent="1">
          <mxGeometry x="305" y="838" width="50" height="30" as="geometry" />
        </mxCell>
        <mxCell id="CtCd1h_A16PmkRaLvVNn-30" value="NO" style="text;html=1;align=center;verticalAlign=middle;resizable=0;points=[];autosize=1;strokeColor=none;fillColor=none;" vertex="1" parent="1">
          <mxGeometry x="370" y="998" width="40" height="30" as="geometry" />
        </mxCell>
      </root>
    </mxGraphModel>
  </diagram>
</mxfile>
